<svg id="icon" viewBox="0 0 21.6 24" xmlns="http://www.w3.org/2000/svg"><path d="m21.6 21.6a2.39 2.39 0 0 1 -2.4 2.4h-16.8a2.39 2.39 0 0 1 -2.4-2.4 9.58 9.58 0 0 1 2.15-6 2.4 2.4 0 0 1 3.2-.47 9.7 9.7 0 0 0 10.89 0 2.4 2.4 0 0 1 3.21.47 9.58 9.58 0 0 1 2.15 6zm-10.8-7.2a7.2 7.2 0 1 0 -7.2-7.2 7.2 7.2 0 0 0 7.2 7.2z" fill="currentColor"/><path d="m21.6 21.6a2.39 2.39 0 0 1 -2.4 2.4h-16.8a2.39 2.39 0 0 1 -2.4-2.4 9.58 9.58 0 0 1 2.15-6 2.4 2.4 0 0 1 3.2-.47 9.7 9.7 0 0 0 10.89 0 2.4 2.4 0 0 1 3.21.47 9.58 9.58 0 0 1 2.15 6z" fill="currentColor"/><g fill="#646e87"><circle cx="17.31" cy="18.75" r="1.28"/><path d="m13.1 9.76a.54.54 0 0 1 .4.91 3.7 3.7 0 0 1 -5.4 0 .54.54 0 0 1 .4-.91z"/></g></svg>