<svg id="icon" viewBox="0 0 24 23.99" xmlns="http://www.w3.org/2000/svg"><path d="m7.2 13.2h9.59v10.79h-9.59z" fill="#646e87"/><path d="m23.65 12.85a1.21 1.21 0 0 1 -1.7 0l-.35-.35v9.5a2.11 2.11 0 0 1 -2.19 2h-2.61a1.19 1.19 0 0 1 -1.2-1.2v-7.08a1.2 1.2 0 0 0 -1.2-1.2h-4.8a1.2 1.2 0 0 0 -1.2 1.2v7.07a1.19 1.19 0 0 1 -1.2 1.21h-2.6a2.11 2.11 0 0 1 -2.19-2v-9.5l-.35.35a1.21 1.21 0 0 1 -1.7 0 1.19 1.19 0 0 1 0-1.69l10.79-10.81a1.19 1.19 0 0 1 1.69 0l10.8 10.8a1.19 1.19 0 0 1 0 1.69z" fill="currentColor"/><circle cx="12" cy="6.84" fill="#646e87" r="1.5"/></svg>