<svg viewBox="0 0 25 20" xmlns="http://www.w3.org/2000/svg"><rect fill="currentColor" height="16" rx="1" width="5" x="16.99" y="4"/><path d="m7 10v9a1 1 0 0 1 -1 1h-3a1 1 0 0 1 -1-1v-9a1 1 0 0 1 1-1h3a1 1 0 0 1 1 1zm6.5-10h-3a1 1 0 0 0 -1 1v18a1 1 0 0 0 1 1h3a1 1 0 0 0 1-1v-18a1 1 0 0 0 -1-1z" fill="currentColor"/><g fill="none"><path d="m8.75 15.55h-1.75-5-2"/><path d="m15.19 10.43h-.69-5-3.05"/><path d="m25 13.25h-3-5-.75"/></g><path d="m22 13.25v5.75a1 1 0 0 1 -1 1h-3a1 1 0 0 1 -1-1v-5.75z" fill="#646e87"/><path d="m9.5 10.43v8.57a1 1 0 0 0 1 1h3a1 1 0 0 0 1-1v-8.57zm-7.5 5.12v3.45a1 1 0 0 0 1 1h3a1 1 0 0 0 1-1v-3.45z" fill="#646e87"/></svg>